<svg width="40" height="40" viewBox="0 0 40 40" fill="none" xmlns="http://www.w3.org/2000/svg">
    <path fill-rule="evenodd" clip-rule="evenodd"
        d="M18.5975 8.04961C16.711 8.25936 14.7547 9.00117 13.0958 10.1359C12.6944 10.4104 11.9028 11.1026 11.3368 11.6738L10.3077 12.7125L16.9097 12.7367L23.5118 12.7609L24.2173 12.0671C24.6053 11.6855 24.9969 11.3475 25.0876 11.316C25.3782 11.2149 25.7291 11.4307 26.3286 12.0793L26.9138 12.7125L28.2492 12.7434L29.5845 12.7742L29.3917 12.5023C29.0312 11.9938 27.7231 10.7708 26.9308 10.2017C25.6116 9.25413 23.9564 8.53594 22.3151 8.19864C21.4312 8.01704 19.5639 7.9422 18.5975 8.04961ZM22.1116 14.6565C22.0085 14.7091 21.7344 14.9851 21.5025 15.2699C21.2705 15.5547 20.9964 15.8371 20.8934 15.8975C20.7581 15.9768 19.0251 16.0205 14.6712 16.0545L8.63646 16.1015L8.50986 16.469C8.39432 16.8043 8.20035 17.7249 8.05669 18.6198L8 18.9728H13.6482H19.2962L20.0189 18.251C20.6154 17.6552 20.7935 17.5294 21.0393 17.5294C21.2883 17.5294 21.4496 17.6476 22.0237 18.251L22.7102 18.9728H27.3551H32L31.9419 18.5727C31.8507 17.9441 31.5553 16.5985 31.4458 16.3134L31.3465 16.0545H27.8239C25.3832 16.0545 24.2386 16.0217 24.0967 15.9478C23.9841 15.8892 23.6178 15.5503 23.2828 15.1947C22.6698 14.5443 22.492 14.4626 22.1116 14.6565ZM17.2854 21.4139C16.9501 21.7728 16.5573 22.1117 16.4123 22.167C16.2404 22.2328 14.7676 22.2677 12.1724 22.2677C9.98539 22.2677 8.19594 22.3003 8.19594 22.3402C8.19594 22.5196 8.60554 23.8706 8.86436 24.5447L9.14961 25.2878L12.039 25.2605L14.9284 25.2331L15.6746 24.5035C16.6473 23.5524 16.7439 23.548 17.5667 24.4179C17.9017 24.7722 18.268 25.1111 18.3805 25.171C18.5297 25.2506 20.2488 25.2801 24.716 25.2801H30.8467L31.1327 24.5506C31.3974 23.8753 31.6182 23.1594 31.7571 22.5266L31.8139 22.2677H25.841H19.8679L19.143 21.5146C18.201 20.536 18.1102 20.531 17.2854 21.4139ZM12.5342 27.4518C12.1429 27.8647 11.8042 28.1372 11.641 28.1699C11.4964 28.199 11.358 28.2555 11.3334 28.2955C11.3088 28.3354 11.53 28.5898 11.825 28.8605C13.3813 30.2895 15.3985 31.3208 17.5667 31.7961C18.7436 32.054 21.0894 32.0701 22.2026 31.8279C24.6045 31.3053 26.9143 30.1013 28.3403 28.6288L28.7592 28.1962L21.9396 28.1997C18.1889 28.2016 15.0697 28.173 15.008 28.1361C14.9465 28.0991 14.6285 27.7803 14.3016 27.4277C13.5015 26.5645 13.3731 26.5663 12.5342 27.4518Z"
        fill="currentColor" />
</svg>