<svg width="40" height="40" viewBox="0 0 40 40" fill="none" xmlns="http://www.w3.org/2000/svg">
    <path
        d="M31.9373 17.0606C32.4367 13.9083 29.8951 12.2137 26.4198 11.0832L27.5471 6.81304L24.7947 6.16526L23.6971 10.3229C22.9735 10.1526 22.2303 9.99198 21.4919 9.83281L22.5972 5.64778L19.8463 5L18.7182 9.26869C18.1193 9.13987 17.5313 9.01254 16.9606 8.87854L16.9637 8.86521L13.1678 7.97017L12.4356 10.7464C12.4356 10.7464 14.4778 11.1883 14.4347 11.2157C15.5495 11.4785 15.751 12.1752 15.7173 12.7275L14.4331 17.5921C14.51 17.6106 14.6095 17.6373 14.7193 17.6787C14.6276 17.6573 14.5296 17.6336 14.4284 17.6106L12.6285 24.4253C12.4921 24.7451 12.1463 25.2248 11.3671 25.0427C11.3945 25.0804 9.36643 24.5711 9.36643 24.5711L8 27.5465L11.5819 28.3897C12.2483 28.5474 12.9013 28.7125 13.5441 28.8679L12.405 33.187L15.1544 33.8347L16.2825 29.5616C17.0335 29.7541 17.7626 29.9318 18.476 30.0991L17.3518 34.3522L20.1043 35L21.2433 30.6891C25.9369 31.5279 29.4663 31.1896 30.9518 27.1807C32.1489 23.9529 30.8923 22.091 28.4228 20.8769C30.2212 20.4853 31.5759 19.3681 31.9373 17.0606V17.0606ZM25.6484 25.3884C24.7978 28.6162 19.0428 26.8713 17.177 26.4338L18.6884 20.7118C20.5543 21.1516 26.5374 22.0222 25.6484 25.3884ZM26.4998 17.0139C25.7236 19.95 20.9337 18.4583 19.3799 18.0926L20.7502 12.9029C22.304 13.2686 27.308 13.9512 26.4998 17.0139V17.0139Z"
        fill="currentColor" />
</svg>