<svg width="18" height="20" viewBox="0 0 18 20" fill="none" xmlns="http://www.w3.org/2000/svg">
    <path
        d="M15.5846 4.18386L10.5846 1.2705C9.58463 0.687828 8.33463 0.687828 7.33463 1.2705L2.41797 4.18386C1.33464 4.76653 0.667969 6.01511 0.667969 7.26366V12.7574C0.667969 14.0061 1.33464 15.2546 2.41797 15.8373L7.41797 18.7507C7.91797 19.0003 8.41797 19.1668 9.0013 19.1668C9.58463 19.1668 10.0846 19.0003 10.5846 18.7507L15.5846 15.8373C16.668 15.2546 17.3346 14.0061 17.3346 12.7574V7.26366C17.3346 6.01511 16.668 4.76653 15.5846 4.18386ZM15.668 12.7574C15.668 13.4233 15.3346 14.0893 14.7513 14.4222L9.7513 17.3356C9.2513 17.5853 8.66797 17.5853 8.16797 17.3356L3.16797 14.4222C2.58464 14.0893 2.2513 13.5066 2.2513 12.7574V7.26366C2.2513 6.59777 2.58464 5.93188 3.16797 5.59894L8.16797 2.68556C8.5013 2.60232 8.7513 2.51908 9.0013 2.51908C9.2513 2.51908 9.5013 2.60232 9.7513 2.7688L14.7513 5.68216C15.3346 6.01511 15.668 6.59777 15.668 7.34694V12.7574Z"
        fill="#FEC404" />
    <path
        d="M15.668 12.7574C15.668 13.4233 15.3346 14.0893 14.7513 14.4222L9.7513 17.3356C9.2513 17.5853 8.66797 17.5853 8.16797 17.3356L3.16797 14.4222C2.58464 14.0893 2.2513 13.5066 2.2513 12.7574V7.26366C2.2513 6.59777 2.58464 5.93188 3.16797 5.59894L8.16797 2.68556C8.5013 2.60232 8.7513 2.51908 9.0013 2.51908C9.2513 2.51908 9.5013 2.60232 9.7513 2.7688L14.7513 5.68216C15.3346 6.01511 15.668 6.59777 15.668 7.34694V12.7574Z"
        fill="#FEC404" />
    <path
        d="M13.5539 6.78261L8.98286 9.25356L4.41178 6.78261C3.99623 6.5355 3.49756 6.70022 3.24823 7.11206C3.08201 7.52389 3.16512 8.01811 3.58067 8.26517L8.15175 10.7362V15.8428C8.15175 16.3371 8.48419 16.6665 8.98286 16.6665C9.48152 16.6665 9.81397 16.3371 9.81397 15.8428V10.7362L14.385 8.26517C14.8006 8.01811 14.9668 7.52389 14.7175 7.11206C14.4681 6.70022 13.9695 6.5355 13.5539 6.78261Z"
        fill="#0B0D10" />
</svg>