<svg width="60" height="60" viewBox="0 0 60 60" fill="none" xmlns="http://www.w3.org/2000/svg">
<path d="M46 30C46 21.1634 38.8366 14 30 14C21.1634 14 14 21.1634 14 30C14 37.9861 19.851 44.6053 27.5 45.8056V34.625H23.4375V30H27.5V26.475C27.5 22.465 29.8887 20.25 33.5434 20.25C35.294 20.25 37.125 20.5625 37.125 20.5625V24.5H35.1074C33.1198 24.5 32.5 25.7334 32.5 26.9987V30H36.9375L36.2281 34.625H32.5V45.8056C40.149 44.6053 46 37.9861 46 30Z" fill="white"/>
<path d="M36.2281 34.625L36.9375 30H32.5V26.9987C32.5 25.7334 33.1198 24.5 35.1074 24.5H37.125V20.5625C37.125 20.5625 35.294 20.25 33.5434 20.25C29.8887 20.25 27.5 22.465 27.5 26.475V30H23.4375V34.625H27.5V45.8056C28.327 45.9352 29.1629 46.0002 30 46C30.8505 46 31.6854 45.9334 32.5 45.8056V34.625H36.2281Z" fill="#17191D"/>
</svg>
