<svg width="20" height="20" viewBox="0 0 20 20" fill="none" xmlns="http://www.w3.org/2000/svg">
<path d="M14.1667 2.5H5.83333C3.99238 2.5 2.5 3.99238 2.5 5.83333V12.5C2.5 14.341 3.99238 15.8333 5.83333 15.8333H8.125L9.33333 17.4444C9.66667 17.8889 10.3333 17.8889 10.6667 17.4444L11.875 15.8333H14.1667C16.0076 15.8333 17.5 14.341 17.5 12.5V5.83333C17.5 3.99238 16.0076 2.5 14.1667 2.5Z" fill="#0C0E11"/>
<path d="M8.33594 7.49992C8.33594 7.17028 8.43369 6.84805 8.61682 6.57397C8.79996 6.29989 9.06026 6.08627 9.3648 5.96012C9.66934 5.83397 10.0045 5.80097 10.3278 5.86528C10.6511 5.92959 10.948 6.08832 11.1811 6.32141C11.4142 6.5545 11.5729 6.85147 11.6372 7.17477C11.7016 7.49807 11.6685 7.83318 11.5424 8.13773C11.4163 8.44227 11.2026 8.70257 10.9286 8.8857C10.6545 9.06884 10.3322 9.16659 10.0026 9.16659V9.99992" stroke="white" stroke-width="1.5" stroke-linecap="round" stroke-linejoin="round"/>
<circle cx="9.9974" cy="12.5001" r="0.833333" fill="white"/>
</svg>
