<svg width="60" height="60" viewBox="0 0 60 60" fill="none" xmlns="http://www.w3.org/2000/svg">
<path d="M30 14C25.6547 14 25.1098 14.0184 23.4032 14.0963C21.7002 14.174 20.5371 14.4445 19.5194 14.8399C18.4672 15.2488 17.5749 15.7959 16.6855 16.6854C15.7959 17.5749 15.2488 18.4673 14.84 19.5194C14.4444 20.5371 14.174 21.7002 14.0962 23.4032C14.0184 25.1098 14 25.6547 14 30C14 34.3453 14.0184 34.8902 14.0962 36.5968C14.174 38.2998 14.4444 39.4629 14.84 40.4806C15.2489 41.5327 15.796 42.425 16.6855 43.3146C17.575 44.2041 18.4672 44.7512 19.5194 45.1601C20.5371 45.5555 21.7002 45.826 23.4032 45.9037C25.1098 45.9816 25.6547 46 30 46C34.3453 46 34.8902 45.9816 36.5968 45.9037C38.2998 45.826 39.4629 45.5555 40.4806 45.1601C41.5327 44.7512 42.425 44.2041 43.3146 43.3146C44.2041 42.425 44.7512 41.5327 45.1601 40.4806C45.5555 39.4629 45.826 38.2998 45.9037 36.5968C45.9816 34.8902 46 34.3453 46 30C46 25.6547 45.9816 25.1098 45.9037 23.4032C45.826 21.7002 45.5555 20.5371 45.1601 19.5194C44.7512 18.4673 44.2041 17.5749 43.3146 16.6854C42.425 15.7959 41.5327 15.2488 40.4806 14.8399C39.4629 14.4445 38.2998 14.174 36.5968 14.0963C34.8902 14.0184 34.3453 14 30 14ZM30 16.8829C34.2722 16.8829 34.7782 16.8992 36.4654 16.9762C38.0254 17.0473 38.8726 17.3079 39.4363 17.5271C40.1832 17.8173 40.7162 18.164 41.276 18.7239C41.836 19.2838 42.1827 19.8168 42.4729 20.5636C42.692 21.1274 42.9527 21.9747 43.0238 23.5346C43.1008 25.2218 43.1171 25.7278 43.1171 30C43.1171 34.2722 43.1008 34.7782 43.0238 36.4654C42.9527 38.0254 42.692 38.8726 42.4729 39.4363C42.1827 40.1832 41.836 40.7162 41.276 41.276C40.7162 41.836 40.1832 42.1827 39.4364 42.4729C38.8726 42.692 38.0253 42.9527 36.4654 43.0238C34.7785 43.1008 34.2725 43.1171 30 43.1171C25.7275 43.1171 25.2216 43.1008 23.5346 43.0238C21.9746 42.9527 21.1274 42.692 20.5637 42.4729C19.8168 42.1827 19.2838 41.836 18.724 41.276C18.1641 40.7162 17.8173 40.1832 17.5271 39.4364C17.3079 38.8726 17.0473 38.0253 16.9762 36.4654C16.8992 34.7782 16.8829 34.2722 16.8829 30C16.8829 25.7278 16.8992 25.2218 16.9762 23.5346C17.0473 21.9746 17.3079 21.1274 17.5271 20.5637C17.8173 19.8168 18.1641 19.2838 18.7239 18.724C19.2838 18.164 19.8168 17.8173 20.5636 17.5271C21.1274 17.3079 21.9747 17.0473 23.5346 16.9762C25.2218 16.8992 25.7279 16.8829 30 16.8829Z" fill="#100F0D"/>
<path d="M30 14C25.6547 14 25.1098 14.0184 23.4032 14.0963C21.7002 14.174 20.5371 14.4445 19.5194 14.8399C18.4672 15.2488 17.5749 15.7959 16.6855 16.6854C15.7959 17.5749 15.2488 18.4673 14.84 19.5194C14.4444 20.5371 14.174 21.7002 14.0962 23.4032C14.0184 25.1098 14 25.6547 14 30C14 34.3453 14.0184 34.8902 14.0962 36.5968C14.174 38.2998 14.4444 39.4629 14.84 40.4806C15.2489 41.5327 15.796 42.425 16.6855 43.3146C17.575 44.2041 18.4672 44.7512 19.5194 45.1601C20.5371 45.5555 21.7002 45.826 23.4032 45.9037C25.1098 45.9816 25.6547 46 30 46C34.3453 46 34.8902 45.9816 36.5968 45.9037C38.2998 45.826 39.4629 45.5555 40.4806 45.1601C41.5327 44.7512 42.425 44.2041 43.3146 43.3146C44.2041 42.425 44.7512 41.5327 45.1601 40.4806C45.5555 39.4629 45.826 38.2998 45.9037 36.5968C45.9816 34.8902 46 34.3453 46 30C46 25.6547 45.9816 25.1098 45.9037 23.4032C45.826 21.7002 45.5555 20.5371 45.1601 19.5194C44.7512 18.4673 44.2041 17.5749 43.3146 16.6854C42.425 15.7959 41.5327 15.2488 40.4806 14.8399C39.4629 14.4445 38.2998 14.174 36.5968 14.0963C34.8902 14.0184 34.3453 14 30 14Z" fill="white"/>
<path d="M30.0014 35.3333C27.0558 35.3333 24.668 32.9455 24.668 30C24.668 27.0544 27.0558 24.6666 30.0014 24.6666C32.9469 24.6666 35.3347 27.0544 35.3347 30C35.3347 32.9455 32.9469 35.3333 30.0014 35.3333ZM30.0014 21.7837C25.4636 21.7837 21.7852 25.4622 21.7852 30C21.7852 34.5376 25.4636 38.2161 30.0014 38.2161C34.5391 38.2161 38.2176 34.5376 38.2176 30C38.2176 25.4622 34.5391 21.7837 30.0014 21.7837M40.4622 21.4591C40.4622 22.5195 39.6026 23.3791 38.5422 23.3791C37.4819 23.3791 36.6222 22.5195 36.6222 21.4591C36.6222 20.3987 37.4819 19.5391 38.5422 19.5391C39.6026 19.5391 40.4622 20.3987 40.4622 21.4591" fill="#17191D"/>
</svg>
