<svg width="38" height="44" viewBox="0 0 38 44" fill="none" xmlns="http://www.w3.org/2000/svg">
    <path
        d="M4.77867 0C4.23071 2.31379 3.96883 4.70104 3.58851 7.04666C2.86218 11.5259 2.14231 16.0135 1.37145 20.4875C1.01922 22.5321 0.641487 24.5707 0.338707 26.6207C0.240455 27.2859 -0.158377 28.174 0.0690643 28.8391C0.260648 29.3993 0.851193 29.792 1.28355 30.1544C2.21235 30.933 3.1792 31.6685 4.13142 32.4178C7.59404 35.1429 11.0561 37.8763 14.4873 40.6422C15.562 41.5085 16.6321 42.3795 17.7235 43.2241C18.0751 43.4962 18.534 44.0281 19.018 43.9988C19.54 43.9674 20.0544 43.3696 20.4419 43.0648C21.5232 42.2143 22.6125 41.375 23.6782 40.5038C27.0928 37.7122 30.6365 35.0779 34.0341 32.2645C34.8852 31.5597 35.7526 30.87 36.623 30.1897C37.0585 29.8494 37.665 29.4836 37.9119 28.9677C38.1614 28.4465 37.8094 27.568 37.7332 27.0122C37.4995 25.3069 37.1293 23.6275 36.9188 21.923C36.8041 20.9942 36.5671 20.1003 36.3958 19.1826C35.7252 15.5892 35.212 11.9534 34.5849 8.3516C34.2909 6.66327 34.0478 4.95289 33.7771 3.26234C33.603 2.1752 33.5581 1.02307 33.1279 0H32.869C30.7401 3.44621 28.0581 6.61525 25.7118 9.91753C25.0264 10.8823 24.3105 11.8244 23.6237 12.7884C23.2452 13.3198 22.8646 14.0274 22.2907 14.3688C21.8681 14.6203 21.1733 14.4848 20.7008 14.4848H17.2057C16.7234 14.4848 16.0993 14.5848 15.6575 14.3507C15.1656 14.0901 14.8547 13.4903 14.5418 13.0494C13.9199 12.1726 13.2845 11.3045 12.6464 10.4395C10.0907 6.97463 7.58692 3.46996 5.03756 0H4.77867Z"
        fill="currentColor" />
</svg>