<svg width="20" height="20" viewBox="0 0 20 20" fill="none" xmlns="http://www.w3.org/2000/svg">
    <path fill-rule="evenodd" clip-rule="evenodd"
        d="M2.23244 9.90067C7.06328 7.64981 10.2792 6.15417 11.8941 5.42856C16.4903 3.37021 17.4565 3.01481 18.0776 3C18.2156 3 18.5193 3.02962 18.7263 3.20732C18.8919 3.3554 18.9334 3.54791 18.961 3.69599C18.9886 3.84407 19.0162 4.15505 18.9886 4.39198C18.7401 7.20556 17.6635 14.0322 17.1114 17.1715C16.8768 18.5043 16.4213 18.9485 15.9796 18.993C15.0135 19.0818 14.2819 18.3118 13.3572 17.6602C11.8941 16.6384 11.0798 16.0017 9.65813 14.9947C8.01565 13.8397 9.07843 13.2029 10.017 12.1663C10.2654 11.8998 14.5028 7.75347 14.5856 7.38326C14.5994 7.33883 14.5994 7.16113 14.5028 7.07228C14.4062 6.98343 14.2681 7.01305 14.1577 7.04267C14.0059 7.07228 11.6871 8.73081 7.1737 12.0034C6.51118 12.4921 5.91768 12.7291 5.37939 12.7142C4.78588 12.6994 3.65408 12.3588 2.79834 12.0627C1.76315 11.7073 0.93501 11.5148 1.00402 10.8928C1.04543 10.567 1.4595 10.2413 2.23244 9.90067Z"
        fill="currentColor" />
</svg>