<svg width="40" height="40" viewBox="0 0 40 40" fill="none" xmlns="http://www.w3.org/2000/svg">
    <path fill-rule="evenodd" clip-rule="evenodd"
        d="M11.8298 8.00011L28.2979 8C28.8805 8 29.4627 8.08557 30.0711 8.36922C30.8005 8.70919 31.1872 9.24504 31.4582 9.64132C31.4792 9.67215 31.499 9.70392 31.5172 9.73643C31.8358 10.3035 32 10.9158 32 11.5745C32 12.2003 31.8511 12.8821 31.5172 13.4764C31.5141 13.4821 31.5108 13.4877 31.5076 13.4934L21.1033 31.3657C20.8738 31.7599 20.4515 32.0016 19.9955 32C19.5394 31.9984 19.1188 31.7536 18.8922 31.3578L8.67896 13.5237C8.67602 13.5188 8.67309 13.514 8.67015 13.5091C8.43641 13.1239 8.07495 12.5283 8.01172 11.7597C7.95362 11.0528 8.11249 10.3445 8.46766 9.73045C8.82283 9.11627 9.35753 8.6253 10.0007 8.32476C10.6902 8.00252 11.389 8.00011 11.8298 8.00011ZM18.7234 10.5532H11.8298C11.3769 10.5532 11.203 10.5811 11.0815 10.6379C10.9134 10.7164 10.7722 10.8455 10.6779 11.0086C10.5835 11.1719 10.5408 11.3611 10.5563 11.5505C10.5652 11.659 10.6095 11.7831 10.8705 12.2136C10.8759 12.2226 10.8813 12.2317 10.8865 12.2409L18.7234 25.9254V10.5532ZM21.2766 10.5532V25.993L29.295 12.2192C29.3854 12.0547 29.4468 11.8171 29.4468 11.5745C29.4468 11.3776 29.406 11.2067 29.3148 11.0305C29.219 10.8929 29.1607 10.82 29.112 10.7701C29.0701 10.7274 29.0379 10.7045 28.9924 10.6833C28.8028 10.5949 28.6088 10.5532 28.2979 10.5532H21.2766Z"
        fill="currentColor" />
</svg>