<svg width="60" height="60" viewBox="0 0 60 60" fill="none" xmlns="http://www.w3.org/2000/svg">
<path d="M45.2748 20.0236C44.772 20.2465 44.2552 20.4347 43.7271 20.5875C44.3523 19.8804 44.829 19.0484 45.12 18.138C45.1853 17.9339 45.1176 17.7105 44.9499 17.577C44.7824 17.4435 44.5496 17.4275 44.3651 17.5368C43.2436 18.202 42.0336 18.68 40.7648 18.9595C39.4868 17.7107 37.751 17 35.9565 17C32.1686 17 29.0869 20.0816 29.0869 23.8693C29.0869 24.1677 29.1058 24.4643 29.1432 24.7569C24.4428 24.3442 20.073 22.0339 17.0722 18.353C16.9653 18.2218 16.8005 18.1511 16.6319 18.1646C16.4631 18.1778 16.3114 18.273 16.2262 18.4192C15.6176 19.4636 15.2958 20.658 15.2958 21.8733C15.2958 23.5285 15.8868 25.099 16.9307 26.3261C16.6133 26.2162 16.3053 26.0788 16.0113 25.9156C15.8534 25.8277 15.6608 25.8291 15.504 25.919C15.3471 26.0089 15.2487 26.1743 15.2446 26.355C15.2439 26.3855 15.2439 26.4159 15.2439 26.4468C15.2439 28.9175 16.5736 31.1419 18.6067 32.3543C18.432 32.3368 18.2575 32.3115 18.084 32.2784C17.9052 32.2442 17.7214 32.3069 17.6008 32.4433C17.4801 32.5795 17.4401 32.7694 17.4958 32.9429C18.2483 35.2923 20.1857 37.0204 22.5279 37.5472C20.5853 38.764 18.3638 39.4013 16.0317 39.4013C15.5451 39.4013 15.0557 39.3727 14.5767 39.316C14.3388 39.2877 14.1113 39.4282 14.0303 39.6545C13.9492 39.8809 14.0351 40.1332 14.2375 40.263C17.2335 42.1839 20.6976 43.1992 24.2553 43.1992C31.2492 43.1992 35.6244 39.9012 38.0631 37.1344C41.1041 33.6845 42.8482 29.1182 42.8482 24.6063C42.8482 24.4178 42.8453 24.2274 42.8396 24.0377C44.0394 23.1338 45.0723 22.0398 45.9129 20.7824C46.0406 20.5914 46.0268 20.339 45.8788 20.1632C45.7311 19.9873 45.4849 19.9305 45.2748 20.0236Z" fill="white"/>
</svg>
