<svg width="40" height="40" viewBox="0 0 40 40" fill="none" xmlns="http://www.w3.org/2000/svg">
    <path fill-rule="evenodd" clip-rule="evenodd"
        d="M23.2554 22.1266C23.0736 22.1404 22.1342 22.1975 20.0386 22.1975C18.3719 22.1975 17.1885 22.1466 16.7733 22.1266C10.3321 21.8382 5.52431 20.697 5.52431 19.3306C5.52431 17.9642 10.3321 16.8245 16.7733 16.5315V20.99C17.1946 21.0208 18.4007 21.0933 20.0674 21.0933C22.0675 21.0933 23.0691 21.0085 23.2494 20.9915V16.5346C29.677 16.8261 34.4742 17.9673 34.4742 19.3306C34.4742 20.6939 29.6785 21.8351 23.2494 22.125L23.2554 22.1266ZM23.2554 16.0735V12.0839H32.2256V6H7.80321V12.0839H16.7718V16.072C9.48207 16.4128 4 17.8825 4 19.6436C4 21.4048 9.48207 22.873 16.7718 23.2153V36H23.2539V23.2107C30.527 22.8699 36 21.4017 36 19.6421C36 17.8825 30.5315 16.4143 23.2539 16.072L23.2554 16.0735Z"
        fill="currentColor" />
</svg>